<svg xmlns="http://www.w3.org/2000/svg" viewBox="0 0 560 128" role="img" aria-labelledby="title desc">
  <title id="title">EdNotebook primary logo</title>
  <desc id="desc">An open notebook mark beside the EdNotebook wordmark and the phrase Learning, teaching, and campus life.</desc>
  <g transform="translate(8 8)">
    <rect x="0" y="0" width="112" height="112" rx="28" fill="#101B33"/>
    <path d="M24 29C24 23 29 18 35 18H54V87H35C29 87 24 92 24 98V29Z" fill="#FFFFFF"/>
    <path d="M88 29C88 23 83 18 77 18H58V87H77C83 87 88 92 88 98V29Z" fill="#FFFFFF"/>
    <path d="M33 39H49M33 50H49M33 61H45" fill="none" stroke="#1D4ED8" stroke-width="5.5" stroke-linecap="round"/>
    <path d="M67 42L73 48L84 35" fill="none" stroke="#F2B33D" stroke-width="6" stroke-linecap="round" stroke-linejoin="round"/>
    <circle cx="76" cy="66" r="10" fill="#F2B33D"/>
    <path d="M76 59V73M69 66H83" fill="none" stroke="#101B33" stroke-width="3.8" stroke-linecap="round"/>
    <path d="M24 98C31 91 40 87 54 87M88 98C81 91 72 87 58 87" fill="none" stroke="#1D4ED8" stroke-width="4.5" stroke-linecap="round"/>
  </g>
  <text x="145" y="70" fill="#101B33" font-family="Georgia, 'Times New Roman', serif" font-size="52" font-weight="700" letter-spacing="-1.4">Ed</text>
  <text x="207" y="70" fill="#F2B33D" font-family="Georgia, 'Times New Roman', serif" font-size="52" font-weight="700" letter-spacing="-1.4">Notebook</text>
  <text x="148" y="96" fill="#5B6478" font-family="Inter, Arial, sans-serif" font-size="14" font-weight="600" letter-spacing="0.35">Learning, teaching, and campus life</text>
</svg>
